<svg width="20" height="20" viewBox="0 0 20 20" fill="none" xmlns="http://www.w3.org/2000/svg">
<path d="M9.99994 16.1542L5.15827 19.0708C4.94438 19.2069 4.72077 19.2653 4.48744 19.2458C4.2541 19.2264 4.04994 19.1486 3.87494 19.0125C3.69994 18.8764 3.56383 18.7063 3.4666 18.5021C3.36938 18.2979 3.34994 18.0694 3.40827 17.8167L4.6916 12.3042L0.404103 8.6C0.209658 8.425 0.0881306 8.2257 0.0395195 8.00209C-0.00909163 7.77848 0.0054917 7.55973 0.0832695 7.34584C0.161047 7.13195 0.277714 6.95695 0.433269 6.82084C0.588825 6.68473 0.802714 6.59723 1.07494 6.55834L6.73327 6.0625L8.92077 0.870837C9.01799 0.637504 9.16869 0.462504 9.37285 0.345837C9.57702 0.229171 9.78605 0.170837 9.99994 0.170837C10.2138 0.170837 10.4229 0.229171 10.627 0.345837C10.8312 0.462504 10.9819 0.637504 11.0791 0.870837L13.2666 6.0625L18.9249 6.55834C19.1972 6.59723 19.411 6.68473 19.5666 6.82084C19.7222 6.95695 19.8388 7.13195 19.9166 7.34584C19.9944 7.55973 20.009 7.77848 19.9604 8.00209C19.9117 8.2257 19.7902 8.425 19.5958 8.6L15.3083 12.3042L16.5916 17.8167C16.6499 18.0694 16.6305 18.2979 16.5333 18.5021C16.436 18.7063 16.2999 18.8764 16.1249 19.0125C15.9499 19.1486 15.7458 19.2264 15.5124 19.2458C15.2791 19.2653 15.0555 19.2069 14.8416 19.0708L9.99994 16.1542Z" fill="#A9E851"/>
</svg>
